<svg xmlns="http://www.w3.org/2000/svg" width="41" height="36.099" viewBox="0 0 41 36.099">
  <path id="Gradient_Overlay" data-name="Gradient Overlay" d="M565.157,4109.738A21.309,21.309,0,0,1,562,4099.426v-.218a9.782,9.782,0,0,1,3.157-7.593c4.211-3.624,12.632-3.624,16.842,3.624,4.211-7.248,12.632-7.248,16.844-3.624a9.78,9.78,0,0,1,3.157,7.565v.276a21.358,21.358,0,0,1-3.157,10.281c-2.948,5.436-10.528,10.873-16.844,14.5C575.685,4120.611,568.105,4115.174,565.157,4109.738Z" transform="translate(-561.5 -4088.713)" fill="none" stroke="#ef4875" stroke-width="1"/>
</svg>
