<svg xmlns="http://www.w3.org/2000/svg" xmlns:xlink="http://www.w3.org/1999/xlink" width="40" height="35" viewBox="0 0 40 35">
  <defs>
    <linearGradient id="linear-gradient" x1="0.5" y1="1" x2="0.5" gradientUnits="objectBoundingBox">
      <stop offset="0" stop-color="#f37274"/>
      <stop offset="1" stop-color="#ef4875"/>
    </linearGradient>
  </defs>
  <path id="Gradient_Overlay" data-name="Gradient Overlay" d="M565.157,4109.738A21.309,21.309,0,0,1,562,4099.426v-.218a9.782,9.782,0,0,1,3.157-7.593c4.211-3.624,12.632-3.624,16.842,3.624,4.211-7.248,12.632-7.248,16.844-3.624a9.78,9.78,0,0,1,3.157,7.565v.276a21.358,21.358,0,0,1-3.157,10.281c-2.948,5.436-10.528,10.873-16.844,14.5C575.685,4120.611,568.105,4115.174,565.157,4109.738Z" transform="translate(-562 -4089.235)" fill="url(#linear-gradient)"/>
</svg>
